<svg xmlns="http://www.w3.org/2000/svg" viewBox="0 0 110 114.11"><defs><style>.cls-1{fill:#1b1464;}.cls-2{fill:none;stroke:#1b1464;stroke-miterlimit:10;stroke-width:3px;}</style></defs><g id="Layer_2_copy" data-name="Layer 2 copy"><path class="cls-1" d="M53.23,149.56a3.18,3.18,0,0,1-3,1.8c-1.9,0-2.69-.94-2.69-2.35,0-2.88,3.07-3.65,5.69-4.06a8.41,8.41,0,0,0,2.18-.65,2.06,2.06,0,0,0,1.39-1.92c0-.69-.43-1.46-1.7-1.46a2.67,2.67,0,0,0-2.76,2.42h-1c-.12-2.28,1.88-3.5,4.42-3.5s3.82,1.29,3.82,3.14c0,3.1-3.77,4.54-3.77,6.44,0,.57.24,1,.89,1s1-.38,1.08-1.34h.76c.1,1.44-.69,2.3-2.44,2.3C54.51,151.36,53.45,150.69,53.23,149.56Zm.32-2.14A6.28,6.28,0,0,1,55,145.24a22.33,22.33,0,0,1-2.16.67,2.91,2.91,0,0,0-1.73,2c-.41,1.2-.43,2.18.43,2.18S53,148.62,53.55,147.42Z" transform="translate(-5 -37.25)"/><path class="cls-1" d="M62.5,151.12h-.6a10,10,0,0,1-1.16-4.27c0-3.87,3.77-4.59,3.77-6a1,1,0,0,0-.29-.74l.41-.22c.77.41,1.28,1,1.11,2.76,1.05-1.65,2.35-2.78,4-2.78,1.37,0,2.07.74,2.07,1.87,0,2.47-2.24,2.69-2.24,3.6a.71.71,0,0,0,.17.46l-.1.26c-1,0-2.44-.17-2.44-1.58a2.91,2.91,0,0,1,2.23-2.59c.36-.12.55-.29.55-.56s-.17-.48-.62-.48c-1.63,0-3.67,2.93-5.33,6.77Z" transform="translate(-5 -37.25)"/></g><g id="Layer_3" data-name="Layer 3"><polygon class="cls-2" points="55 3 7.37 85.5 102.63 85.5 55 3"/><line class="cls-2" y1="44.25" x2="110" y2="44.25"/></g></svg>