<svg xmlns="http://www.w3.org/2000/svg" viewBox="0 0 91.8 116.12"><defs><style>.cls-1{fill:#1b1464;}.cls-2{fill:none;stroke:#1b1464;stroke-miterlimit:10;stroke-width:3px;}</style></defs><g id="Layer_2_copy" data-name="Layer 2 copy"><path class="cls-1" d="M38.14,151.12A9.73,9.73,0,0,1,37,147.3c0-4.08,3.43-4.51,4.35-6.43H39.17V140h2.35c0-1-.53-1.42-.53-2.67,0-1.53,1.11-3.21,3.84-3.21a2.33,2.33,0,0,1,2.64,2.28,2.23,2.23,0,0,1-.4,1.27h-.84c.31-1.44-.2-2.64-1.64-2.64-1.24,0-1.63.79-1.63,1.92s.75,1.61.75,3.05h2.08v.91h-2.2c-.29,1-1.16,2.11-2,4l-2.78,6.22Z" transform="translate(-14.1 -41)"/><path class="cls-1" d="M52.25,139.84c2.62,0,4.06,1.56,4.06,3.89a7.93,7.93,0,0,1-7.71,7.63,3.65,3.65,0,0,1-4-3.77A7.91,7.91,0,0,1,52.25,139.84Zm1.8,2.18c0-.79-.62-1.32-1.63-1.32-2.21,0-2.14,2.43-3.32,4.76s-2.25,2.49-2.25,3.79c0,.67.57,1.25,1.63,1.25,2.16,0,2.14-2.43,3.31-4.76S54.05,143.44,54.05,142Z" transform="translate(-14.1 -41)"/><path class="cls-1" d="M54.5,154.62a2,2,0,0,1,.82-1.58H56a4.35,4.35,0,0,0,0,1.3c.21,1,1,1.84,3,1.84,2.42,0,4-.64,4-1.84,0-1-.91-1.23-2.07-1.4-.45-.07-.93-.09-1.39-.16-1.75-.2-3.48-.56-3.48-2.57,0-1.27.72-3,3.91-3.31a2.44,2.44,0,0,1-1.29-2.36c0-2.49,2.25-4.7,6-4.7,2.13,0,3.19.84,3.74,1.78a1.81,1.81,0,0,1,1.85-1.45,1.2,1.2,0,0,1,1.32,1.21,1.46,1.46,0,0,1-.34.93h-.77c.27-.69.15-1.22-.36-1.22s-.69.36-1,1.46q-.12.47-.27,1.08c-.55,2.23-2.3,4.13-5.95,4.13-.77,0-1.25-.14-1.73-.14-2.28,0-3.55.79-3.55,1.6s1.34.58,3,.39a10.73,10.73,0,0,1,1.51-.12c2.28,0,3.48,1.13,3.48,2.93,0,2.32-2.21,4.7-7,4.7C55.39,157.12,54.5,155.87,54.5,154.62Zm11.79-12.76A1.21,1.21,0,0,0,65,140.61c-1.49,0-1.33,1.41-2.24,2.83-.77,1.15-1.27,1.49-1.27,2.42A1.16,1.16,0,0,0,62.76,147c1.78,0,1.54-1.46,2.38-2.78C65.81,143.2,66.29,142.77,66.29,141.86Z" transform="translate(-14.1 -41)"/><path class="cls-1" d="M78.38,139.84c2.62,0,4.06,1.56,4.06,3.89a7.92,7.92,0,0,1-7.7,7.63,3.64,3.64,0,0,1-4-3.77A7.9,7.9,0,0,1,78.38,139.84Zm1.8,2.18c0-.79-.62-1.32-1.63-1.32-2.21,0-2.13,2.43-3.31,4.76S73,148,73,149.25c0,.67.58,1.25,1.64,1.25,2.16,0,2.13-2.43,3.31-4.76S80.18,143.44,80.18,142Z" transform="translate(-14.1 -41)"/></g><g id="Layer_3" data-name="Layer 3"><polygon class="cls-2" points="45.9 3 2.6 78 89.2 78 45.9 3"/></g></svg>