<svg xmlns="http://www.w3.org/2000/svg" viewBox="0 0 62.89 127.66"><defs><style>.cls-1{fill:#1b1464;}</style></defs><g id="Layer_2_copy_2" data-name="Layer 2 copy 2"><path class="cls-1" d="M50.35,134.08a3.38,3.38,0,0,1,1,2.69,18.37,18.37,0,0,1-1.82,6.48L46,151.12h-.63a9.9,9.9,0,0,1-1-4.08c0-6,5.69-8.14,5.69-11.83a2.17,2.17,0,0,0-.19-.92Z" transform="translate(-28.56 -23.74)"/><path class="cls-1" d="M61,139.84h.6a12.63,12.63,0,0,1,1.12,4.42c0,4-4,4.72-4,6.19a1,1,0,0,0,.32.74l-.41.22a2,2,0,0,1-1.25-2.23,4,4,0,0,1-3.7,2.18A3.18,3.18,0,0,1,50.4,148c0-3.74,5.21-5.64,5.21-7.18a1.15,1.15,0,0,0-.31-.74l.41-.22A2.21,2.21,0,0,1,57,142.1c0,3.81-3.87,5.11-3.87,7.1a1,1,0,0,0,1.15,1.08c1.88,0,3.24-2.33,4.49-5.28Z" transform="translate(-28.56 -23.74)"/><path class="cls-1" d="M68.81,149.56a3.18,3.18,0,0,1-3,1.8c-1.9,0-2.69-.94-2.69-2.35,0-2.88,3.07-3.65,5.69-4.06A8.6,8.6,0,0,0,71,144.3a2.06,2.06,0,0,0,1.39-1.92c0-.69-.43-1.46-1.71-1.46a2.67,2.67,0,0,0-2.76,2.42h-1c-.12-2.28,1.87-3.5,4.41-3.5s3.82,1.29,3.82,3.14c0,3.1-3.77,4.54-3.77,6.44,0,.57.24,1,.89,1s1-.38,1.08-1.34h.77c.1,1.44-.7,2.3-2.45,2.3C70.08,151.36,69,150.69,68.81,149.56Zm.31-2.14a6.28,6.28,0,0,1,1.46-2.18,21.49,21.49,0,0,1-2.16.67,2.9,2.9,0,0,0-1.72,2c-.41,1.2-.44,2.18.43,2.18S68.54,148.62,69.12,147.42Z" transform="translate(-28.56 -23.74)"/></g><g id="Layer_2_copy_3" data-name="Layer 2 copy 3"><path class="cls-1" d="M53.75,73.31A48.76,48.76,0,0,1,91.44,25.83,48.77,48.77,0,1,0,88.37,120,48.78,48.78,0,0,1,53.75,73.31Z" transform="translate(-28.56 -23.74)"/></g></svg>