<svg xmlns="http://www.w3.org/2000/svg" viewBox="0 0 120 153.78"><defs><style>.cls-1{fill:#1b1464;}</style></defs><g id="Layer_1" data-name="Layer 1"><path class="cls-1" d="M99,94a57,57,0,1,1-57,57A57.06,57.06,0,0,1,99,94m0-3a60,60,0,1,0,60,60A60,60,0,0,0,99,91Z" transform="translate(-39 -91)"/><circle class="cls-1" cx="61" cy="60" r="12"/></g><g id="Layer_2_copy" data-name="Layer 2 copy"><path class="cls-1" d="M79.2,239.06c-.7,2.73.31,4.44,3.13,4.44,1.84,0,3.12-.67,3.12-2.05,0-1.08-.74-1.48-3-2.72a4.47,4.47,0,0,1-2.63-4.17c0-2.82,2.79-5.91,7.19-5.91,2.49,0,4.17,1.14,4.17,3a2.92,2.92,0,0,1-.67,1.85H89.28c.61-2.25-.37-3.56-2.72-3.56-2.08,0-3.33,1.11-3.33,2.29,0,1.64,1.62,1.91,3.2,2.45s3.19,1.31,3.19,4c0,3.16-3.4,6.05-7.56,6.05-3.33,0-4.84-1.52-4.84-3.46a3.93,3.93,0,0,1,.71-2.26Z" transform="translate(-39 -91)"/><path class="cls-1" d="M103.29,228.65c3.67,0,5.68,2.18,5.68,5.44a11.09,11.09,0,0,1-10.78,10.69c-3.73,0-5.62-2.39-5.62-5.28A11.07,11.07,0,0,1,103.29,228.65Zm2.52,3c0-1.1-.87-1.84-2.28-1.84-3.09,0-3,3.39-4.64,6.65s-3.16,3.49-3.16,5.31c0,.94.81,1.75,2.29,1.75,3,0,3-3.4,4.63-6.66S105.81,233.69,105.81,231.7Z" transform="translate(-39 -91)"/><path class="cls-1" d="M119.49,220.58a4.76,4.76,0,0,1,1.41,3.77c0,3-1.55,6.75-2.55,9.07l-4.94,11h-.88a13.61,13.61,0,0,1-1.37-5.71c0-8.37,8-11.39,8-16.57a2.91,2.91,0,0,0-.27-1.27Z" transform="translate(-39 -91)"/></g></svg>