<svg xmlns="http://www.w3.org/2000/svg" viewBox="0 0 110 112.61"><defs><style>.cls-1{fill:#1b1464;}.cls-2{fill:none;stroke:#1b1464;stroke-miterlimit:10;stroke-width:3px;}</style></defs><g id="Layer_2_copy" data-name="Layer 2 copy"><path class="cls-1" d="M37.38,140.87H35.44V140h2.78a3.18,3.18,0,0,0,.65-1.9,2,2,0,0,0-.24-.93l.43-.2a3.36,3.36,0,0,1,1.06,2.55,2.42,2.42,0,0,1,0,.48H42.3v.91H40c-.72,3.82-4.15,6-4.15,8.45a1,1,0,0,0,1.08,1.06c1.2,0,2.08-1,2.08-2.86h.82a3.06,3.06,0,0,1-3.17,3.84c-2.4,0-3.7-1.78-3.7-4C33,143.87,35.63,142.48,37.38,140.87Z" transform="translate(-5 -38.75)"/><path class="cls-1" d="M46.19,151.36c-2.83,0-4.37-1.32-4.37-3.89,0-4.37,4.85-7.63,8.07-7.63,2.11,0,3.26.86,3.26,2.49a3.45,3.45,0,0,1-2.45,3,12.55,12.55,0,0,1-4.63.69c-1.25,2.09-1.9,1.92-1.9,3.05,0,.79.77,1.27,1.92,1.27,2.12,0,3.17-1,3.29-2.83h.87C50.44,150.06,48.69,151.36,46.19,151.36Zm.29-6a3.3,3.3,0,0,0,2.35-.82,3.86,3.86,0,0,0,.89-1.46c.53-1.44.55-2.54-.41-2.54C47.73,140.54,48.11,142.12,46.48,145.36Z" transform="translate(-5 -38.75)"/><path class="cls-1" d="M55.38,151.12h-.6a10,10,0,0,1-1.15-4.27c0-3.87,3.77-4.59,3.77-6a1,1,0,0,0-.29-.74l.41-.22c.77.41,1.27,1,1.1,2.76,1.06-1.65,2.35-2.78,4-2.78a1.8,1.8,0,0,1,2.06,1.87c0,2.47-2.23,2.69-2.23,3.6a.66.66,0,0,0,.17.46l-.1.26c-1,0-2.45-.17-2.45-1.58a2.92,2.92,0,0,1,2.23-2.59c.36-.12.56-.29.56-.56s-.17-.48-.63-.48c-1.63,0-3.67,2.93-5.33,6.77Z" transform="translate(-5 -38.75)"/><path class="cls-1" d="M66.66,151.12h-.6a10,10,0,0,1-1.15-4.27c0-3.87,3.77-4.59,3.77-6a1,1,0,0,0-.29-.74l.41-.22c.76.41,1.27,1,1.1,2.76,1.06-1.65,2.35-2.78,4-2.78,1.37,0,2.07.74,2.07,1.87,0,2.47-2.23,2.69-2.23,3.6a.71.71,0,0,0,.16.46l-.09.26c-1,0-2.45-.17-2.45-1.58a2.92,2.92,0,0,1,2.23-2.59c.36-.12.55-.29.55-.56s-.16-.48-.62-.48c-1.63,0-3.67,2.93-5.33,6.77Z" transform="translate(-5 -38.75)"/><path class="cls-1" d="M80.12,149.56a3.18,3.18,0,0,1-3,1.8c-1.9,0-2.69-.94-2.69-2.35,0-2.88,3.07-3.65,5.69-4.06a8.41,8.41,0,0,0,2.18-.65,2.06,2.06,0,0,0,1.39-1.92c0-.69-.43-1.46-1.7-1.46a2.67,2.67,0,0,0-2.76,2.42h-1c-.12-2.28,1.88-3.5,4.42-3.5s3.82,1.29,3.82,3.14c0,3.1-3.77,4.54-3.77,6.44,0,.57.24,1,.89,1s1-.38,1.08-1.34h.76c.1,1.44-.69,2.3-2.44,2.3C81.4,151.36,80.34,150.69,80.12,149.56Zm.32-2.14a6.28,6.28,0,0,1,1.46-2.18,22.33,22.33,0,0,1-2.16.67,2.91,2.91,0,0,0-1.73,2c-.41,1.2-.43,2.18.43,2.18S79.86,148.62,80.44,147.42Z" transform="translate(-5 -38.75)"/></g><g id="Layer_3" data-name="Layer 3"><polygon class="cls-2" points="55 84 7.37 1.5 102.63 1.5 55 84"/><line class="cls-2" y1="42.75" x2="110" y2="42.75"/></g></svg>